# xmcd
# Track frame offsets:
# 150
# 13735
# 24710
# 35190
# 48077
# 60227
# 73365
# 84377
# 97745
# 112162
# 124622
#
# Disc length: 1838 seconds
# Revision: 0
# Processed by: cddbd v1.4PL0 Copyright (c) Steve Scherf et al.
# Submitted via: VisiTrax 2.9.5.180 - For more info visit www.synapsa.com
#
DISCID=8e072c0b
DTITLE=Tommy Cash - Tommy Cash
DYEAR=1900
DGENRE=
TTITLE0=An american original
TTITLE1=We're not gonna make it
TTITLE2=When I'm through lovin' you
TTITLE3=You're my best friend
TTITLE4=King of the road
TTITLE5=I turned your picture to the wall
TTITLE6=Pick me up on your way down
TTITLE7=I don't know a thing about love
TTITLE8=Oh lonesome me
TTITLE9=Since I met you baby
TTITLE10=The wayward wind
EXTD=
EXTT0=
EXTT1=
EXTT2=
EXTT3=
EXTT4=
EXTT5=
EXTT6=
EXTT7=
EXTT8=
EXTT9=
EXTT10=
PLAYORDER=
